HIERARCHY
ROOT Hips
{
	OFFSET 0.00000 0.00000 0.00000
	CHANNELS 6 Xposition Yposition Zposition Zrotation Yrotation Xrotation 
	JOINT LHipJoint
	{
		OFFSET 0 0 0
		CHANNELS 3 Zrotation Yrotation Xrotation
		JOINT LeftUpLeg
		{
			OFFSET 1.60223 -1.58443 0.78595
			CHANNELS 3 Zrotation Yrotation Xrotation
			JOINT LeftLeg
			{
				OFFSET 2.21690 -6.09089 0.00000
				CHANNELS 3 Zrotation Yrotation Xrotation
				JOINT LeftFoot
				{
					OFFSET 2.34805 -6.45122 0.00000
					CHANNELS 3 Zrotation Yrotation Xrotation
					JOINT LeftToeBase
					{
						OFFSET 0.35452 -0.97402 1.38549
						CHANNELS 3 Zrotation Yrotation Xrotation
						End Site
						{
							OFFSET 0.00000 -0.00000 0.82816
						}
					}
				}
			}
		}
	}
	JOINT RHipJoint
	{
		OFFSET 0 0 0
		CHANNELS 3 Zrotation Yrotation Xrotation
		JOINT RightUpLeg
		{
			OFFSET -1.56524 -1.58443 0.78595
			CHANNELS 3 Zrotation Yrotation Xrotation
			JOINT RightLeg
			{
				OFFSET -2.15558 -5.92241 0.00000
				CHANNELS 3 Zrotation Yrotation Xrotation
				JOINT RightFoot
				{
					OFFSET -2.35077 -6.45870 0.00000
					CHANNELS 3 Zrotation Yrotation Xrotation
					JOINT RightToeBase
					{
						OFFSET -0.26910 -0.73935 1.33295
						CHANNELS 3 Zrotation Yrotation Xrotation
						End Site
						{
							OFFSET -0.00000 -0.00000 0.75962
						}
					}
				}
			}
		}
	}
	JOINT LowerBack
	{
		OFFSET 0 0 0
		CHANNELS 3 Zrotation Yrotation Xrotation
		JOINT Spine
		{
			OFFSET -0.05489 1.97104 -0.02993
			CHANNELS 3 Zrotation Yrotation Xrotation
			JOINT Spine1
			{
				OFFSET -0.00702 1.94230 0.13626
				CHANNELS 3 Zrotation Yrotation Xrotation
				JOINT Neck
				{
					OFFSET 0 0 0
					CHANNELS 3 Zrotation Yrotation Xrotation
					JOINT Neck1
					{
						OFFSET -0.07858 1.62869 -0.02510
						CHANNELS 3 Zrotation Yrotation Xrotation
						JOINT Head
						{
							OFFSET 0.13978 1.59213 -0.29859
							CHANNELS 3 Zrotation Yrotation Xrotation
							End Site
							{
								OFFSET 0.05353 1.64420 -0.10000
							}
						}
					}
				}
				JOINT LeftShoulder
				{
					OFFSET 0 0 0
					CHANNELS 3 Zrotation Yrotation Xrotation
					JOINT LeftArm
					{
						OFFSET 3.48263 1.15278 0.52941
						CHANNELS 3 Zrotation Yrotation Xrotation
						JOINT LeftForeArm
						{
							OFFSET 4.59207 -0.00000 -0.00000
							CHANNELS 3 Zrotation Yrotation Xrotation
							JOINT LeftHand
							{
								OFFSET 2.98109 -0.00000 -0.00000
								CHANNELS 3 Zrotation Yrotation Xrotation
								JOINT LeftFingerBase
								{
									OFFSET 0 0 0
									CHANNELS 3 Zrotation Yrotation Xrotation
									JOINT LeftHandIndex1
									{
										OFFSET 0.48020 -0.00000 -0.00000
										CHANNELS 3 Zrotation Yrotation Xrotation
										End Site
										{
											OFFSET 0.38715 -0.00000 -0.00000
										}
									}
								}
								JOINT LThumb
								{
									OFFSET 0 0 0
									CHANNELS 3 Zrotation Yrotation Xrotation
									End Site
									{
										OFFSET 0.39306 -0.00000 0.39306
									}
								}
							}
						}
					}
				}
				JOINT RightShoulder
				{
					OFFSET 0 0 0
					CHANNELS 3 Zrotation Yrotation Xrotation
					JOINT RightArm
					{
						OFFSET -3.52496 1.12722 0.24548
						CHANNELS 3 Zrotation Yrotation Xrotation
						JOINT RightForeArm
						{
							OFFSET -4.76508 -0.00000 -0.00000
							CHANNELS 3 Zrotation Yrotation Xrotation
							JOINT RightHand
							{
								OFFSET -2.78902 -0.00000 -0.00000
								CHANNELS 3 Zrotation Yrotation Xrotation
								JOINT RightFingerBase
								{
									OFFSET 0 0 0
									CHANNELS 3 Zrotation Yrotation Xrotation
									JOINT RightHandIndex1
									{
										OFFSET -0.72130 -0.00000 -0.00000
										CHANNELS 3 Zrotation Yrotation Xrotation
										End Site
										{
											OFFSET -0.58153 -0.00000 -0.00000
										}
									}
								}
								JOINT RThumb
								{
									OFFSET 0 0 0
									CHANNELS 3 Zrotation Yrotation Xrotation
									End Site
									{
										OFFSET -0.59041 -0.00000 0.59041
									}
								}
							}
						}
					}
				}
			}
		}
	}
}
MOTION
Frames: 10
Frame Time: 0.0127389
0.00 0.00 0.00 506.6920 -112.7640 -861.1450 0.0000 0.0000 0.0000 -2.2214 -1.1416 -51.2693 16.6076 19.7218 80.0369 0.0836 3.7248 -8.0917 0.9876 -6.3252 -17.7309 0.0000 0.0000 0.0000 37.1083 -9.1511 -11.1884 -1.7395 -8.3010 23.6320 0.3241 22.5220 -13.3800 -0.0001 -0.0710 0.1950 4.0035 3.4232 7.4042 4.7302 5.4889 -7.0065 1.9546 2.4784 -11.8691 0.9673 6.4563 -1.3399 1.9476 8.4553 6.7288 0.6517 4.2750 2.2970 0.0000 -0.0000 0.0000 -85.7769 28.4716 48.4833 55.9402 -55.1273 -30.9859 -0.0000 -0.0000 38.4488 50.4517 44.0591 40.1021 -7.1250 0.0000 -0.0000 55.9871 84.1673 50.9996 0.0000 -0.0000 0.0000 86.6658 5.2621 25.0637 -45.1952 50.8638 -22.3901 0.0000 0.0000 3.7490 7.8646 86.1731 7.8473 7.1250 -0.0000 -0.0000 29.6474 51.0462 42.9750
0.00 0.00 0.00 500.8260 -108.2620 -853.3920 0.0000 0.0000 0.0000 -4.9887 0.9060 -56.8619 10.5481 17.7067 61.3050 0.6969 3.2389 -17.2713 2.5004 -9.8387 -28.4560 0.0000 0.0000 0.0000 33.2342 -7.1096 -4.3449 -1.3941 -7.4697 21.1146 0.4740 23.1468 -12.7042 -0.0983 2.0215 -5.5650 2.9351 5.8729 6.9086 4.1564 8.6217 -7.4895 1.4029 4.0372 -12.2346 0.5103 6.8586 -3.3143 1.1864 9.0580 6.6180 0.5866 4.5498 2.6322 0.0000 -0.0000 0.0000 -86.7343 33.6281 46.4702 50.3988 -53.1551 -26.4930 -0.0000 -0.0000 37.9205 65.7239 47.2446 58.4399 -7.1250 0.0000 -0.0000 136.0197 -78.5288 -144.6124 0.0000 -0.0000 0.0000 86.2299 3.5938 25.9429 -48.1582 52.2251 -24.7107 0.0000 0.0000 5.9265 -98.5227 -88.5833 98.5253 7.1250 -0.0000 -0.0000 30.5667 55.1774 43.5328
0.00 0.00 0.00 523.2750 -117.6600 -875.4110 0.0000 0.0000 0.0000 -16.6630 -4.6420 -50.2332 9.1570 16.9077 56.6314 0.6510 4.1504 -17.3118 0.6662 -5.2200 -14.5370 0.0000 0.0000 0.0000 27.9620 -8.0230 -2.5678 -3.1753 -10.9736 32.1910 0.3963 11.9425 -0.3810 -1.5207 7.7868 -22.0684 2.3469 5.8851 5.9759 1.9959 8.3445 -7.4078 -0.4401 3.8951 -11.2726 -3.2583 2.2255 -7.1384 5.3903 3.0223 2.4895 2.4176 1.6150 1.8977 -0.0000 -0.0000 0.0000 -91.7577 38.0590 31.3735 43.1817 -49.8460 -20.8395 -0.0000 -0.0000 41.2865 69.3454 35.3522 56.9155 -7.1250 0.0000 -0.0000 90.2019 -74.4051 -106.4165 -0.0000 -0.0000 0.0000 83.1697 -2.6589 31.6656 -61.0992 56.5958 -35.2572 0.0000 0.0000 6.0807 -93.0097 -87.6015 93.0123 7.1250 -0.0000 -0.0000 29.5461 55.4549 41.9600
0.00 0.00 0.00 532.4300 -125.0560 -882.5260 0.0000 0.0000 0.0000 -19.1126 -13.8150 -44.7759 9.2649 16.9752 57.0017 0.7278 1.2981 -16.6366 0.9720 -6.2765 -17.5889 0.0000 0.0000 0.0000 24.1590 -7.4798 -15.2194 -8.0283 -16.1400 52.6644 -0.2336 4.3272 11.7655 -2.8481 10.4450 -30.4302 1.8843 6.1735 3.9535 0.2079 8.4609 -7.6554 -1.8626 3.9548 -10.1039 -5.5751 -0.5839 -6.7048 5.9940 -0.4666 -0.5547 2.8927 -0.1430 1.0271 -0.0000 -0.0000 0.0000 -90.2690 36.9555 25.4448 36.8923 -46.1171 -16.1624 -0.0000 -0.0000 44.2071 63.1085 26.7482 41.5879 -7.1250 0.0000 -0.0000 59.6483 69.5291 39.5383 -0.0000 -0.0000 0.0000 82.6990 -4.9204 35.2814 -69.6521 58.3763 -42.4743 0.0000 0.0000 5.5944 -88.0504 88.9418 -88.0501 7.1250 -0.0000 -0.0000 30.7135 54.8430 43.8270
0.00 0.00 0.00 547.5190 -139.4120 -896.8450 0.0000 0.0000 0.0000 -31.9619 -17.5613 -33.1180 8.8424 16.7052 55.5433 0.5407 -4.2380 -13.0950 1.2050 -6.9643 -19.6098 0.0000 0.0000 0.0000 13.2686 -7.4040 -30.6323 -15.3680 -19.4776 76.3426 -0.0441 1.7281 4.9977 -2.4996 9.8372 -28.4510 -4.2482 6.1798 7.5323 -2.9037 7.4935 -6.1976 -2.0545 3.7773 -11.0482 -6.8516 -1.9857 -5.2969 3.3607 -2.2692 -2.4227 2.1938 -1.0690 0.2695 0.0000 -0.0000 0.0000 -88.3871 32.3603 23.8368 42.5457 -49.5079 -20.3546 -0.0000 -0.0000 14.8328 50.5155 -7.2335 -8.6892 -7.1250 0.0000 -0.0000 16.6624 18.9245 -10.8232 0.0000 -0.0000 0.0000 82.4939 -2.5958 39.9580 -73.3780 58.9299 -45.6567 0.0000 0.0000 5.1406 119.7508 -89.5143 -119.7517 7.1250 -0.0000 -0.0000 32.2911 54.5412 46.2608
0.00 0.00 0.00 549.3510 -156.7870 -895.9890 0.0000 0.0000 0.0000 -33.5426 -20.5242 -26.6890 8.4860 16.4653 54.2948 -0.1150 -12.4474 -7.0930 1.2654 -7.1304 -20.1023 0.0000 0.0000 0.0000 7.5938 3.7279 -40.7883 -16.2855 -19.6659 79.0813 -0.0547 1.0610 -4.1750 -1.4797 7.6858 -21.7638 -3.4556 6.0784 6.7500 -4.3643 7.4050 -5.7085 -3.8575 3.6487 -9.7222 -5.0414 0.3934 -4.7859 0.2657 0.7905 -0.6163 0.9381 0.4025 0.5869 -0.0000 -0.0000 0.0000 -88.4255 27.4229 18.7439 59.2910 -56.1180 -33.7518 -0.0000 0.0000 -28.0980 11.4206 -25.3266 -4.9389 -7.1250 0.0000 -0.0000 -11.0570 4.6120 10.3303 -0.0000 -0.0000 0.0000 82.9109 2.1336 45.4848 -71.5686 58.6766 -44.1089 0.0000 0.0000 5.4216 -36.0747 89.6202 -36.0741 7.1250 -0.0000 -0.0000 31.2952 54.3113 44.8183
0.00 0.00 0.00 552.1390 -169.3040 -894.9100 0.0000 0.0000 0.0000 -34.6355 -24.4797 -20.7676 7.5018 15.7403 50.7475 -0.7176 -17.0477 -2.7635 0.9948 -6.3477 -17.7967 0.0000 0.0000 0.0000 -3.3599 13.4561 -41.9725 -13.5285 -18.9647 70.7592 -0.3660 -2.0227 -12.3485 -1.0281 6.4498 -18.0953 -5.5191 6.7097 6.5207 -5.6719 7.9497 -5.7166 -4.2065 4.0068 -9.7057 -2.9382 3.9537 -4.7691 -1.0573 5.4936 2.3336 0.3070 2.6914 1.4718 0.0000 -0.0000 0.0000 -88.3625 24.0609 12.2264 67.8087 -58.0549 -40.9073 -0.0000 0.0000 -64.9285 -22.5498 -2.5100 1.0418 -7.1250 0.0000 -0.0000 -35.0100 25.8879 20.0526 0.0000 -0.0000 0.0000 85.3783 4.1680 47.9361 -67.7070 58.0363 -40.8209 0.0000 0.0000 7.6938 -118.4689 -87.4231 118.4932 7.1250 -0.0000 -0.0000 30.4892 56.3641 43.1431
0.00 0.00 0.00 553.6490 -187.2240 -891.0330 0.0000 0.0000 0.0000 -31.7162 -27.8300 -12.7704 5.1615 13.5634 41.5159 -1.5975 -22.0188 4.3143 1.0746 -6.5894 -18.5043 0.0000 0.0000 0.0000 -16.5780 29.3491 -31.7258 -7.2974 -15.5773 49.9903 -0.3872 -0.0689 -11.7813 -1.7558 8.3377 -23.7445 -5.6738 7.6035 4.6806 -7.5172 9.2183 -6.2520 -6.0445 4.6263 -8.9167 -1.2023 6.6970 -3.5742 0.4589 9.0081 5.4381 0.6121 4.4788 2.2400 0.0000 -0.0000 0.0000 -85.5318 21.3979 8.4477 57.5961 -55.6346 -32.3487 -0.0000 0.0000 -164.2010 16.5567 51.8658 13.1614 -7.1250 0.0000 -0.0000 -60.1763 77.1347 -48.1893 0.0000 -0.0000 0.0000 91.6455 3.0033 49.1500 -64.7126 57.4402 -38.2886 0.0000 0.0000 7.1276 -15.2561 88.7116 -15.2525 7.1250 -0.0000 -0.0000 30.5293 53.5497 43.8334
0.00 0.00 0.00 553.3930 -192.3310 -890.2360 0.0000 0.0000 0.0000 -29.8176 -28.8954 -10.9491 4.6818 13.0162 39.4292 -1.7988 -23.0607 6.1594 1.0344 -6.4689 -18.1511 0.0000 0.0000 0.0000 -17.0839 32.3942 -28.0100 -6.1718 -14.5928 45.6673 -0.2350 0.6518 -8.9480 -1.1257 6.7391 -18.9448 -5.3725 7.7550 4.1614 -7.5584 9.5182 -6.2719 -6.1905 4.7725 -8.5591 -2.1655 6.4977 -3.4771 2.0485 8.7085 6.0619 1.2695 4.3547 2.3161 -0.0000 0.0000 0.0000 -85.1477 19.9231 15.8587 72.6140 -58.8265 -45.0026 -0.0000 0.0000 -119.9500 -15.6109 42.7444 -10.7383 -7.1250 0.0000 -0.0000 -62.7609 61.8020 -32.1319 -0.0000 0.0000 0.0000 92.9639 2.4108 49.5773 -64.1307 57.3138 -37.7986 0.0000 0.0000 6.9796 -9.5211 87.4266 -9.5117 7.1250 -0.0000 -0.0000 29.5898 52.4591 42.6307
0.00 0.00 0.00 551.5610 -203.4890 -889.9550 0.0000 0.0000 0.0000 -24.1843 -31.6623 -8.4892 4.2329 12.4640 37.3938 -2.1835 -25.0737 9.0377 1.2285 -7.0295 -19.8027 0.0000 0.0000 0.0000 -12.0291 31.8885 -21.2633 -4.9144 -13.2867 40.4514 0.0056 3.6175 -2.2624 -2.5289 9.8902 -28.6218 -3.5889 7.8046 4.4192 -7.1667 9.7656 -6.4845 -6.8020 4.8056 -8.6781 -2.9445 5.0554 -3.4187 3.6087 6.7251 7.7275 1.9026 3.3996 2.8345 0.0000 -0.0000 0.0000 -84.5236 17.1268 33.7921 76.4432 -59.2940 -48.2873 -0.0000 0.0000 -49.4340 -23.4863 4.3047 -1.8681 -7.1250 0.0000 -0.0000 -37.9479 31.7316 15.5533 0.0000 -0.0000 0.0000 95.8841 0.8912 49.9464 -62.6507 56.9759 -36.5553 0.0000 0.0000 7.0866 9.9170 84.8819 9.8782 7.1250 -0.0000 -0.0000 29.2124 49.8372 42.5059
